<?xml version="1.0" encoding="UTF-8" standalone="no"?>
<svg version="1.1" xmlns="http://www.w3.org/2000/svg" xmlns:xlink="http://www.w3.org/1999/xlink">
	<symbol id="me" viewBox="0 0 512 512">
		<title>Moi</title>
		<path d="M400.885106,377.243404 C333.753191,352.787234 312.292766,332.14383 312.292766,287.942979 C312.292766,261.417021 332.8,270.077447 341.787234,221.491915 C345.518298,201.338723 363.628936,221.165106 367.114894,175.166809 C367.114894,156.838298 357.228936,152.262979 357.228936,152.262979 C357.228936,152.262979 362.267234,125.110638 364.228085,104.249362 C366.624681,78.213617 349.194894,11 256,11 C162.83234,11 145.348085,78.213617 147.799149,104.249362 C149.76,125.110638 154.798298,152.262979 154.798298,152.262979 C154.798298,152.262979 144.885106,156.811064 144.885106,175.166809 C148.34383,221.165106 166.454468,201.338723 170.185532,221.491915 C179.2,270.077447 199.707234,261.417021 199.707234,287.942979 C199.707234,332.14383 178.246809,352.787234 111.114894,377.243404 C43.7378723,401.754043 0,426.782128 0,443.857872 L0,501.185532 L256,501.185532 L512,501.185532 L512,443.857872 C512,426.809362 468.234894,401.781277 400.885106,377.243404 L400.885106,377.243404 L400.885106,377.243404 Z"></path>
	</symbol>
	<symbol id="blog" viewBox="0 0 512 512">
		<title>Blog</title>
		<path d="M84.8888889,0 L426.222222,0 C457.511111,0 483.111111,25.6 483.111111,56.8888889 L483.111111,455.111111 C483.111111,486.4 457.511111,512 426.222222,512 L84.8888889,512 C53.5715556,512 28,486.4 28,455.111111 L28,56.8888889 C28,25.6 53.5715556,-1.01054967e-13 84.8888889,0 L84.8888889,0 L84.8888889,0 Z M84.8888889,455.111111 L426.222222,455.111111 L426.222222,56.8888889 L84.8888889,56.8888889 L84.8888889,455.111111 L84.8888889,455.111111 L84.8888889,455.111111 Z M227.111111,312.888889 L369.333333,312.888889 L369.333333,341.333333 L227.111111,341.333333 L227.111111,312.888889 L227.111111,312.888889 L227.111111,312.888889 Z M141.777778,199.111111 L255.555556,199.111111 L255.555556,227.555556 L141.777778,227.555556 L141.777778,199.111111 L141.777778,199.111111 L141.777778,199.111111 Z M255.555556,170.666667 L141.777778,170.666667 L141.777778,113.777778 L255.555556,113.777778 L255.555556,170.666667 L255.555556,170.666667 L255.555556,170.666667 Z M284,113.777778 L369.333333,113.777778 L369.333333,227.555556 L284,227.555556 L284,113.777778 L284,113.777778 L284,113.777778 Z M312.444444,256 L369.333333,256 L369.333333,284.444444 L312.444444,284.444444 L312.444444,256 L312.444444,256 L312.444444,256 Z M284,284.444444 L141.777778,284.444444 L141.777778,256 L284,256 L284,284.444444 L284,284.444444 L284,284.444444 Z M141.777778,369.777778 L369.333333,369.777778 L369.333333,398.222222 L141.777778,398.222222 L141.777778,369.777778 L141.777778,369.777778 L141.777778,369.777778 Z M198.666667,341.333333 L141.777778,341.333333 L141.777778,312.888889 L198.666667,312.888889 L198.666667,341.333333 L198.666667,341.333333 L198.666667,341.333333 Z"></path>
	</symbol>
	<symbol id="vcard" viewBox="0 0 512 512">
		<title>vCard</title>
		<path d="M460.8,51 L51.2,51 C23.04,51 -9.09494702e-14,74.04 0,102.2 L0,409.4 C0,437.56 23.04,460.6 51.2,460.6 L460.8,460.6 C488.9856,460.6 512,437.56 512,409.4 L512,102.2 C512,74.04 488.9856,51 460.8,51 L460.8,51 L460.8,51 Z M460.8,409.4 L51.2,409.4 L51.2,102.2 L460.8,102.2 L460.8,409.4 L460.8,409.4 L460.8,409.4 Z M230.4,309.56 L102.4,309.56 L102.4,355.64 L230.4,355.64 L230.4,309.56 L230.4,309.56 L230.4,309.56 Z M230.4,232.76 L102.4,232.76 L102.4,278.84 L230.4,278.84 L230.4,232.76 L230.4,232.76 L230.4,232.76 Z M230.4,155.96 L102.4,155.96 L102.4,202.04 L230.4,202.04 L230.4,155.96 L230.4,155.96 L230.4,155.96 Z M407.04,319.8 C407.04,319.8 363.52,308.4336 363.52,286.0592 C363.52,264.76 391.7056,255.8 391.7056,212.28 C391.7056,176.952 380.9536,155.96 345.6,155.96 C310.2464,155.96 299.52,176.9264 299.52,212.28 C299.52,255.8 327.68,264.76 327.68,286.0592 C327.68,308.4336 284.1856,319.8 284.1856,319.8 C281.6,319.8 281.6,355.64 281.6,355.64 L409.6,355.64 C409.6,355.64 409.6,319.8 407.04,319.8 L407.04,319.8 L407.04,319.8 Z"></path>
	</symbol>
	<symbol id="twitter" viewBox="0 0 512 512">
		<title>Twitter</title>
		<path d="M512,97.2243478 C493.133913,105.6 472.904348,111.22087 451.645217,113.78087 C473.349565,100.786087 490.017391,80.1947826 497.836522,55.68 C477.551304,67.7008696 455.067826,76.466087 431.165217,81.1686957 C411.993043,60.7443478 384.695652,48 354.476522,48 C296.45913,48 249.433043,95.026087 249.433043,153.015652 C249.433043,161.252174 250.351304,169.266087 252.16,176.946087 C164.869565,172.577391 87.4573913,130.754783 35.6730435,67.2 C26.6017391,82.6991304 21.3982609,100.758261 21.3982609,120.013913 C21.3982609,156.466087 39.9582609,188.605217 68.146087,207.443478 C50.9217391,206.886957 34.7269565,202.184348 20.5634783,194.309565 L20.5634783,195.617391 C20.5634783,246.511304 56.7930435,288.946087 104.82087,298.629565 C96.0278261,301.022609 86.733913,302.302609 77.133913,302.302609 C70.3721739,302.302609 63.8052174,301.662609 57.3773913,300.438261 C70.733913,342.177391 109.551304,372.535652 155.492174,373.370435 C119.54087,401.558261 74.2678261,418.337391 25.0434783,418.337391 C16.5565217,418.337391 8.20869565,417.836522 0,416.862609 C46.4695652,446.664348 101.676522,464.055652 161.029565,464.055652 C354.226087,464.055652 459.881739,304 459.881739,165.175652 C459.881739,160.64 459.798261,156.104348 459.575652,151.596522 C480.111304,136.793043 497.892174,118.288696 512,97.2243478 L512,97.2243478 L512,97.2243478 Z"></path>
	</symbol>
	<symbol id="github" viewBox="0 0 512 512">
		<title>GitHub</title>
		<path d="M344.486957,292.495652 C324.507826,292.495652 308.313043,314.923478 308.313043,342.554783 C308.313043,370.213913 324.507826,392.641739 344.486957,392.641739 C364.466087,392.641739 380.66087,370.213913 380.66087,342.554783 C380.633043,314.895652 364.438261,292.495652 344.486957,292.495652 L344.486957,292.495652 L344.486957,292.495652 L344.486957,292.495652 Z M470.427826,162.158261 C474.546087,152.001739 474.74087,94.2626087 452.786087,39 C452.786087,39 402.365217,44.5095652 326.121739,96.8504348 C310.121739,92.426087 283.046957,90.2278261 256,90.2278261 C228.925217,90.2278261 201.878261,92.453913 185.850435,96.8504348 C109.634783,44.5095652 59.2417391,39 59.2417391,39 C37.2869565,94.2626087 37.453913,152.001739 41.6,162.158261 C15.7773913,190.206957 0,223.876522 0,269.873043 C0,469.831304 165.89913,473.031304 207.777391,473.031304 C217.266087,473.031304 236.132174,473.05913 256.027826,473.086957 C275.923478,473.05913 294.789565,473.031304 304.222609,473.031304 C346.128696,473.031304 512,469.831304 512,269.873043 C512,223.876522 496.250435,190.206957 470.427826,162.158261 L470.427826,162.158261 L470.427826,162.158261 L470.427826,162.158261 Z M256.77913,448.46087 L255.248696,448.46087 C150.288696,448.46087 68.5356522,435.93913 68.5356522,333.928696 C68.5356522,309.497391 77.1895652,286.81913 97.6417391,268.008696 C131.84,236.648696 189.634783,253.26087 255.248696,253.26087 C255.49913,253.26087 255.777391,253.26087 256.027826,253.233043 C256.306087,253.233043 256.556522,253.26087 256.77913,253.26087 C322.393043,253.26087 380.215652,236.648696 414.386087,268.008696 C434.838261,286.81913 443.464348,309.497391 443.464348,333.928696 C443.464348,435.93913 361.766957,448.46087 256.77913,448.46087 L256.77913,448.46087 L256.77913,448.46087 L256.77913,448.46087 Z M167.54087,292.495652 C147.561739,292.495652 131.366957,314.923478 131.366957,342.554783 C131.366957,370.213913 147.561739,392.641739 167.54087,392.641739 C187.52,392.641739 203.714783,370.213913 203.714783,342.554783 C203.714783,314.895652 187.52,292.495652 167.54087,292.495652 L167.54087,292.495652 L167.54087,292.495652 L167.54087,292.495652 Z" id="Shape"></path>
	</symbol>
	<symbol id="apple" viewBox="0 0 512 512">
		<title>Apple</title>
		<path d="M396.199481,272.045736 C395.552282,207.205094 449.078551,176.10837 451.470546,174.562774 C421.394619,130.553281 374.545933,124.523696 357.849974,123.826898 C317.978872,119.790108 280.051764,147.30124 259.817414,147.30124 C239.633463,147.30124 208.408739,124.424496 175.34162,125.025295 C131.884126,125.670893 91.8130238,150.294033 69.4362784,189.214738 C24.2843886,267.563347 57.8731066,383.634263 101.880999,447.177308 C123.384947,478.278832 149.027284,513.214747 182.693602,511.96755 C215.114323,510.673153 227.374293,490.988401 266.570997,490.988401 C305.767701,490.988401 316.784474,511.96755 351.095591,511.323551 C385.982705,510.675553 408.086651,479.624429 429.441799,448.425305 C454.136939,412.341393 464.304914,377.406278 464.904113,375.612683 C464.129715,375.259084 396.873879,349.494347 396.199481,272.045736 L396.199481,272.045736 L396.199481,272.045736 Z M331.731638,81.7606004 C349.601194,60.0822533 361.661965,30.0047267 358.371573,0 C332.632436,1.04799744 301.432512,17.1447581 282.966957,38.7751053 C266.395797,57.9630585 251.892633,88.5877837 255.779823,117.993312 C284.512553,120.234906 313.843682,103.390948 331.731638,81.7606004 L331.731638,81.7606004 L331.731638,81.7606004 Z"></path>
	</symbol>
	<symbol id="lastfm" viewBox="0 0 512 512">
		<title>Last.fm</title>
		<path d="M201.5744,322.3312 C190.848,331.9568 170.24,351.2592 135.936,351.2592 C95.4624,351.2592 56.4736,315.7776 56.4736,259.0224 C56.4736,186.2928 103.0656,162.8432 138.8544,162.8432 C190.464,162.8432 201.7792,193.9728 215.8336,237.1344 L234.5984,296.2704 C253.3376,353.5888 288.5376,399.6944 389.9904,399.6944 C462.7456,399.6944 512,377.2432 512,318.1328 C512,270.2352 484.992,245.4032 434.5856,233.576 L397.056,225.3328 C371.2512,219.4192 363.6224,208.7952 363.6224,191.0288 C363.6224,170.9328 379.4432,159.1056 405.248,159.1056 C433.408,159.1056 448.64,169.7552 450.9952,195.176 L509.6448,188.0848 C504.96,134.888 468.608,113 408.7808,113 C355.9936,113 304.4096,133.096 304.4096,197.5312 C304.4096,237.7232 323.7632,263.144 372.4032,274.9712 L412.3136,284.4176 C442.2144,291.5088 452.1984,303.9504 452.1984,321.1024 C452.1984,342.9648 431.0784,351.8224 391.1936,351.8224 C331.9808,351.8224 302.208,320.488 288.1536,277.352 L268.7744,218.216 C244.1472,141.3904 215.0656,113 137.0624,113 C67.5328,113 0,167.9888 0,261.3776 C0,351.2592 64.8192,399.72 132.9664,399.72 C182.2464,399.72 207.2576,382.4144 219.4944,373.5312 L201.5744,322.3312 L201.5744,322.3312 L201.5744,322.3312 Z"></path>
	</symbol>
	<symbol id="dribbble" viewBox="0 0 512 512">
		<title>Dribbble</title>
		<path d="M243.895652,184.236522 C206.107826,117.036522 165.704348,62.2747826 162.726957,58.2678261 C101.76,87.0678261 56.2365217,143.22087 42.0730435,210.921739 C47.8052174,211.033043 138.907826,212.118261 243.895652,184.236522 L243.895652,184.236522 L243.895652,184.236522 Z M271.137391,257.669565 C274.031304,256.751304 276.869565,255.916522 279.791304,255.081739 C274.309565,242.643478 268.29913,230.205217 262.038261,217.933913 C149.453913,251.603478 41.4052174,249.182609 37.5652174,249.071304 C37.4817391,251.38087 37.3982609,253.662609 37.3982609,256 C37.3982609,312.236522 58.6573913,363.436522 93.4956522,402.170435 C93.44,402.114783 93.3286957,401.975652 93.3286957,401.975652 C93.3286957,401.975652 153.182609,295.846957 271.137391,257.669565 L271.137391,257.669565 L271.137391,257.669565 Z M121.627826,428.326957 L121.683478,428.243478 C120.041739,426.963478 118.316522,425.822609 116.730435,424.486957 C119.624348,426.824348 121.627826,428.326957 121.627826,428.326957 L121.627826,428.326957 L121.627826,428.326957 Z M203.631304,43.7426087 C203.436522,43.7982609 203.241739,43.826087 203.074783,43.8817391 C203.38087,43.7982609 203.603478,43.7704348 203.631304,43.7426087 L203.631304,43.7426087 L203.631304,43.7426087 L203.631304,43.7426087 Z M400.389565,91.9373913 C361.878261,58.0173913 311.373913,37.3982609 256.027826,37.3982609 C238.246957,37.3982609 221.022609,39.5686957 204.493913,43.5756522 C207.805217,47.9721739 248.848696,102.511304 286.246957,171.102609 C368.667826,140.187826 399.833043,92.8278261 400.389565,91.9373913 L400.389565,91.9373913 L400.389565,91.9373913 Z M256.027826,512 C114.615652,512 0,397.384348 0,256 C0,114.615652 114.615652,0 256.027826,0 C397.412174,0 512,114.615652 512,256 C512,397.384348 397.412174,512 256.027826,512 L256.027826,512 L256.027826,512 Z M293.203478,291.756522 C164.897391,336.473043 122.518261,426.406957 121.683478,428.243478 C158.747826,457.210435 205.328696,474.601739 256.027826,474.601739 C286.302609,474.601739 315.130435,468.452174 341.342609,457.321739 C338.114783,438.149565 325.398261,371.172174 294.650435,291.255652 C294.177391,291.450435 293.676522,291.589565 293.203478,291.756522 L293.203478,291.756522 L293.203478,291.756522 Z M303.026087,203.65913 C308.146087,214.093913 313.015652,224.667826 317.551304,235.38087 C319.193043,239.165217 320.723478,242.921739 322.281739,246.678261 C397.801739,237.189565 472.125217,253.30087 474.546087,253.829565 C474.045217,201.961739 455.513043,154.37913 424.848696,117.147826 C424.403478,117.787826 389.342609,168.431304 303.026087,203.65913 L303.026087,203.65913 L303.026087,203.65913 Z M335.610435,281.182609 C364.326957,360.069565 375.958261,424.264348 378.156522,437.342609 C427.269565,404.201739 462.135652,351.638261 471.846957,290.671304 C467.533913,289.252174 406.288696,269.857391 335.610435,281.182609 L335.610435,281.182609 L335.610435,281.182609 Z"></path>
	</symbol>
</svg>